
        <svg xmlns="http://www.w3.org/2000/svg" xmlns:xlink="http://www.w3.org/1999/xlink" version="1.1" width="3133.0376940133037" 
        height="798.2261640798226" viewBox="0 0 3133.0376940133037 798.2261640798226">
			
			<g transform="scale(6.651884700665189) translate(10, 10)">
				<defs id="SvgjsDefs5414"><linearGradient id="SvgjsLinearGradient5423"><stop id="SvgjsStop5424" stop-color="#8f5e25" offset="0"></stop><stop id="SvgjsStop5425" stop-color="#fbf4a1" offset="0.5"></stop><stop id="SvgjsStop5426" stop-color="#8f5e25" offset="1"></stop></linearGradient></defs><g id="SvgjsG5415" featureKey="rootContainer" transform="matrix(1,0,0,1,0,0)" fill="#086972"><rect xmlns="http://www.w3.org/2000/svg" width="451" height="100" rx="10" ry="10"></rect></g><g id="SvgjsG5416" featureKey="nameLeftFeature-0" transform="matrix(0.9012212673234866,0,0,0.9012212673234866,19.107999412329196,26.762126712614958)" fill="#ffffff"><path d="M1.4 40.08 c-0.4 0.04 -0.56 -1.28 -0.24 -1.36 c2.32 -0.6 4.16 -0.96 4.16 -3.92 l0 -17.92 c0 -2.8 -1.68 -3.36 -3.4 -3.6 c-0.32 -0.04 -0.08 -1.28 0.2 -1.28 l10.76 0 c0.32 0 0.52 1.24 0.24 1.28 c-1.72 0.24 -3.32 0.8 -3.32 3.6 l0 17.92 c0 2.28 1 3.08 4.4 3.08 c6.24 0 8.48 -2.68 9.44 -4.28 c0.32 -0.48 1.32 -0.28 1.32 0.4 c0 2.12 -1.68 6.08 -4.16 6.08 c-2.12 -0.12 -4.48 -0.24 -7.84 -0.24 c-3.72 0 -7.88 -0.12 -11.56 0.24 z M32.04 40 c-0.32 0 -0.56 -1.28 -0.24 -1.32 c2 -0.28 3.36 -1.04 3.36 -3.6 l0 -18.2 c0 -2.52 -1.36 -3.32 -3.36 -3.6 c-0.32 -0.04 -0.08 -1.28 0.24 -1.28 l10.68 0 c0.32 0 0.56 1.24 0.24 1.28 c-1.72 0.24 -3.32 0.8 -3.32 3.6 l0 18.2 c0 2.8 1.6 3.36 3.32 3.6 c0.32 0.04 0.08 1.32 -0.24 1.32 l-10.68 0 z M76.63999999999999 40.4 c-0.64 0 -1 -0.28 -1.44 -0.76 l-19.12 -20.28 l0 15.64 c0 2.68 1.6 3.16 3.8 3.68 c0.32 0.08 0.16 1.32 -0.24 1.32 l-9.28 0 c-0.32 0 -0.56 -1.2 -0.2 -1.32 c1.76 -0.52 3.32 -0.92 3.32 -3.68 l0 -15.68 c0 -2.72 -0.4 -4.2 -1.56 -5.64 c-0.32 -0.4 -0.64 -0.72 -0.64 -0.84 c0 -0.36 0.24 -0.84 0.76 -0.84 l2.88 0 c0.4 0 0.68 0.04 0.96 0.36 l18.72 20.08 l0 -15.48 c0 -2.84 -1.76 -3.16 -3.76 -3.68 c-0.32 -0.08 -0.16 -1.28 0.24 -1.28 l9.24 0 c0.36 0 0.56 1.2 0.24 1.28 c-1.8 0.52 -3.32 0.84 -3.32 3.68 l0 15.72 c0 2.56 0.08 5.48 0.48 6.96 c0.16 0.6 -0.48 0.76 -1.08 0.76 z M105.67999999999999 40.64 c-9.56 0 -17.28 -4.68 -17.28 -14.08 c0 -7.68 5.28 -15.2 16.32 -15.2 c4.84 0 8.6 1.44 8.16 2.76 l-0.56 1.6 c-1.32 3.8 -3.08 -1.24 -10.4 -1.24 c-6.2 0 -9.24 3.64 -9.24 9.8 c0 9.2 6.36 13.88 11.84 13.88 c2.88 0 4.12 -1.4 4.12 -3.76 l0 -0.72 c0 -3.08 -1.32 -4.04 -4.56 -4.56 c-0.52 -0.08 -0.08 -1.48 0.8 -1.48 l10.08 0 c1.08 0 0.64 1.36 0.2 1.48 c-1.44 0.4 -2.4 1.24 -2.4 3.84 l0 1.4 c0 1 0.04 1.8 0.8 3.08 c-2.4 1.32 -6.88 3.2 -7.88 3.2 z M138.2 40.64 c-5.56 0 -11.84 -3 -11.84 -11.12 l0 -12.64 c0 -2.52 -1.36 -3.36 -3.28 -3.6 c-0.32 -0.04 -0.08 -1.28 0.24 -1.28 l10.64 0 c0.32 0 0.56 1.24 0.24 1.28 c-1.6 0.24 -3.2 0.8 -3.2 3.6 l0 12.84 c0 5.64 3.28 8.32 7.64 8.32 c4.48 0 8 -2.68 8 -8.32 l0 -12.84 c0 -2.6 -1.52 -3.32 -3.48 -3.6 c-0.28 -0.04 -0.08 -1.28 0.24 -1.28 l8.88 0 c0.32 0 0.56 1.24 0.24 1.28 c-1.64 0.24 -3.24 0.8 -3.24 3.6 l0 12.64 c0 7.32 -4.76 11.12 -11.08 11.12 z M188.88 38.68 c0.56 0.08 0.4 1.32 -0.08 1.32 l-10.28 0 c-0.52 0 -0.56 -1.24 -0.12 -1.32 c1.52 -0.28 3.08 -0.84 1.6 -4.28 l-0.52 -1.2 c-0.4 -0.92 -1.16 -1 -2.4 -1 l-8.24 0 c-1.2 0 -1.96 0.08 -2.32 1 l-0.48 1.2 c-1.44 3.48 0.08 4 2.04 4.28 c0.48 0.08 0.4 1.32 -0.12 1.32 l-8.56 0 c-0.48 0 -0.6 -1.24 -0.12 -1.32 c1.64 -0.28 2.6 -0.88 4.12 -4.28 l6.76 -15.48 c1.56 -3.52 2.04 -5.2 2.04 -6.72 c0 -0.24 2.8 -0.88 2.92 -0.6 l9.76 22.76 c1.44 3.44 2.4 4.08 4 4.32 z M176.95999999999998 30.08 c0.56 0 1.2 -0.08 0.96 -0.64 l-4.88 -11.64 l-4.92 11.64 c-0.24 0.56 0.4 0.64 0.96 0.64 l7.88 0 z"></path></g><g id="SvgjsG5417" featureKey="inlineSymbolFeature-0" transform="matrix(0.7559808892682846,0,0,0.7559808892682846,199.9454540285399,11.62278662660391)" fill="url(#SvgjsLinearGradient5423)"><path xmlns="http://www.w3.org/2000/svg" d="M79.8,61.1c-1.9,0-3.5,1.5-3.5,3.5c0,1.9,1.5,3.5,3.5,3.5c1.9,0,3.5-1.5,3.5-3.5C83.3,62.6,81.7,61.1,79.8,61.1z M79.8,66  c-0.8,0-1.5-0.7-1.5-1.5s0.7-1.5,1.5-1.5s1.5,0.7,1.5,1.5S80.6,66,79.8,66z"></path><path xmlns="http://www.w3.org/2000/svg" d="M62.4,61.1c-1.9,0-3.5,1.5-3.5,3.5c0,1.9,1.5,3.5,3.5,3.5c1.9,0,3.5-1.5,3.5-3.5C65.8,62.6,64.3,61.1,62.4,61.1z M62.4,66  c-0.8,0-1.5-0.7-1.5-1.5s0.7-1.5,1.5-1.5s1.5,0.7,1.5,1.5S63.2,66,62.4,66z"></path><path xmlns="http://www.w3.org/2000/svg" d="M20.8,61.1c-1.9,0-3.5,1.5-3.5,3.5c0,1.9,1.5,3.5,3.5,3.5s3.5-1.5,3.5-3.5C24.3,62.6,22.7,61.1,20.8,61.1z M20.8,66  c-0.8,0-1.5-0.7-1.5-1.5s0.7-1.5,1.5-1.5s1.5,0.7,1.5,1.5S21.6,66,20.8,66z"></path><path xmlns="http://www.w3.org/2000/svg" d="M41.8,61.1c-1.9,0-3.5,1.5-3.5,3.5c0,1.9,1.5,3.5,3.5,3.5s3.5-1.5,3.5-3.5C45.2,62.6,43.7,61.1,41.8,61.1z M41.8,66  c-0.8,0-1.5-0.7-1.5-1.5s0.7-1.5,1.5-1.5s1.5,0.7,1.5,1.5S42.6,66,41.8,66z"></path><path xmlns="http://www.w3.org/2000/svg" d="M85.2,11.5H74.5c-1.2,0-2.2,1.3-2.2,3.1v72.1c0,1.8,0.9,3.1,2.2,3.1h10.7c1.2,0,2.2-1.3,2.2-3.1V14.6  C87.4,12.9,86.4,11.5,85.2,11.5z M74.3,29.1h11.1v43.2H74.3V29.1z M85.4,27.1H74.3v-4.4h11.1V27.1z M74.3,74.3h11.1v4.4H74.3V74.3z   M74.6,13.5h10.5c0.1,0.1,0.3,0.5,0.3,1.1v6.1H74.3v-6.1C74.3,14,74.5,13.6,74.6,13.5z M85.1,87.8H74.6c-0.1-0.1-0.3-0.5-0.3-1.1v-6  h11.1v6C85.4,87.3,85.2,87.7,85.1,87.8z"></path><path xmlns="http://www.w3.org/2000/svg" d="M67.7,89.8c1.2,0,2.2-1.3,2.2-3.1V14.6c0-1.8-0.9-3.1-2.2-3.1H57c-1.2,0-2.2,1.3-2.2,3.1v72.1c0,1.8,0.9,3.1,2.2,3.1H67.7z   M56.8,29.1h11.1v43.2H56.8V29.1z M67.9,27.1H56.8v-4.4h11.1V27.1z M56.8,74.3h11.1v4.4H56.8V74.3z M57.1,13.5h10.5  c0.1,0.1,0.3,0.5,0.3,1.1v6.1H56.8v-6.1C56.8,14,57,13.6,57.1,13.5z M56.8,80.7h11.1v6c0,0.6-0.2,1-0.3,1.1H57.1  c-0.1-0.1-0.3-0.5-0.3-1.1V80.7z"></path><path xmlns="http://www.w3.org/2000/svg" d="M28.4,86.7V23.3l9.1,64.1c0.1,1,0.6,1.9,1.3,2.4c0.3,0.3,0.7,0.4,1.1,0.4c0.1,0,0.2,0,0.2,0l10.6-1.5  c0.7-0.1,1.2-0.6,1.5-1.4c0.2-0.6,0.3-1.3,0.2-2L42.3,13.9c-0.1-0.7-0.4-1.4-0.8-1.9c-0.5-0.7-1.2-1-1.9-0.9l-10.6,1.5  c-0.4,0.1-0.7,0.2-1,0.5c-0.4-1-1.1-1.6-1.9-1.6H15.5c-1.2,0-2.2,1.3-2.2,3.1v72.1c0,1.8,0.9,3.1,2.2,3.1h10.7  C27.4,89.8,28.4,88.5,28.4,86.7z M15.3,29.1h11.1v43.2H15.3V29.1z M26.4,27.1H15.3v-4.4h11.1V27.1z M15.3,74.3h11.1v4.4H15.3V74.3z   M49.3,77.6l-11,1.6l-0.6-4.3l11-1.6L49.3,77.6z M37.4,72.9l-6.1-42.8l11-1.6l6.1,42.8L37.4,72.9z M42.1,26.5l-11,1.6l-0.6-4.3  l11-1.6L42.1,26.5z M50.3,86.7l-10.4,1.5c-0.1-0.1-0.4-0.5-0.4-1.1l-0.8-6l11-1.6l0.8,6C50.5,86.2,50.4,86.6,50.3,86.7z M29.4,14.6  l10.4-1.5c0.1,0.1,0.4,0.5,0.4,1.1l0.9,6l-11,1.6l-0.9-6C29.2,15.2,29.4,14.8,29.4,14.6z M15.6,13.5h10.5c0.1,0.1,0.3,0.5,0.3,1.1  v6.1H15.3v-6.1C15.3,14,15.5,13.6,15.6,13.5z M15.6,87.8c-0.1-0.1-0.3-0.5-0.3-1.1v-6h11.1v6c0,0.6-0.2,1-0.3,1.1H15.6z"></path></g><g id="SvgjsG5418" featureKey="nameRightFeature-0" transform="matrix(0.9012213260305602,0,0,0.9012213260305602,274.572815844916,26.762126905174256)" fill="#ffffff"><path d="M30.2 24.759999999999998 c3.68 0 7.28 2.68 7.28 7.16 c0 4.92 -4.4 8.16 -11.16 8.16 c-1.92 0 -4.24 -0.24 -7.08 -0.24 c-2.36 0 -4.32 0.04 -6.16 0.24 c-0.36 0.04 -0.56 -1.28 -0.24 -1.36 c2.32 -0.6 4.16 -0.96 4.16 -3.92 l0 -17.84 c0 -2.6 -1.68 -3.32 -3.4 -3.72 c-0.32 -0.08 -0.12 -1.36 0.2 -1.32 c1.64 0.2 3.52 0.24 4.76 0.24 c3.04 0 5.4 -0.24 7.16 -0.24 c5.2 0 9.48 2.16 9.52 6.56 c0.04 3.32 -2.36 5.52 -5.04 6.04 l0 0.24 z M24.48 13.920000000000002 c-2.24 0 -3 0.76 -3 3.04 l0 7.16 l4.2 0 c3 0 4.92 -1.4 4.92 -4.64 c0 -3.92 -2.8 -5.56 -6.12 -5.56 z M26.28 38.08 c3.8 0 6.36 -1.12 6.36 -5.32 c0 -4.64 -3.16 -6.72 -6.96 -6.72 l-4.2 0 l0 8.76 c0 2.2 1.16 3.28 4.8 3.28 z M60.160000000000004 40.64 c-8.32 0 -14.4 -6.2 -14.4 -14.48 c0 -8.08 5.72 -14.8 14.48 -14.8 c8.36 0 14.4 6.16 14.4 14.44 c0 8.12 -5.68 14.84 -14.48 14.84 z M61.68000000000001 38.04 c3.6 0 8.52 -2.32 8.52 -10.08 c0 -8.16 -5.6 -14 -11.48 -14 c-3.6 0 -8.44 2.32 -8.44 10 c0 8.24 5.56 14.08 11.4 14.08 z M97.32 40.64 c-8.32 0 -14.4 -6.2 -14.4 -14.48 c0 -8.08 5.72 -14.8 14.48 -14.8 c8.36 0 14.4 6.16 14.4 14.44 c0 8.12 -5.68 14.84 -14.48 14.84 z M98.84 38.04 c3.6 0 8.52 -2.32 8.52 -10.08 c0 -8.16 -5.6 -14 -11.48 -14 c-3.6 0 -8.44 2.32 -8.44 10 c0 8.24 5.56 14.08 11.4 14.08 z M130.79999999999998 38.68 c0.32 0.04 0.08 1.32 -0.24 1.32 l-10.68 0 c-0.32 0 -0.56 -1.28 -0.24 -1.32 c2 -0.28 3.36 -1.04 3.36 -3.6 l0 -18.2 c0 -2.52 -1.36 -3.32 -3.36 -3.6 c-0.32 -0.04 -0.08 -1.28 0.24 -1.28 l10.68 0 c0.32 0 0.56 1.24 0.24 1.28 c-1.72 0.24 -3.32 0.8 -3.32 3.6 l0 18.2 c0 2.8 1.6 3.36 3.32 3.6 z M147.64 39.04 c0.32 0 0.24 1.04 0 1.12 c-2.4 0.88 -5.88 0.48 -8.28 -2.08 l-11.4 -12.24 l9.08 -9.28 c2 -2 1.88 -2.92 -0.24 -3.28 c-0.48 -0.08 -0.28 -1.28 0.04 -1.28 l9.04 0 c0.32 0 0.56 1.24 0.16 1.28 c-1.8 0.24 -3.8 1.08 -6.4 3.72 l-7.2 7.4 l10.36 11.04 c2.56 2.68 3.96 3.6 4.84 3.6 z M163.71999999999997 40.64 c-3.32 0 -8.24 -1.48 -7.76 -3.2 l0.4 -1.44 c1.08 -4.08 2.36 1.96 8.96 1.96 c3.4 0 5.2 -1.68 5.2 -4.08 c0 -1.96 -1.36 -2.8 -4.08 -4.48 l-4.16 -2.56 c-4.2 -2.6 -5.88 -4.32 -5.88 -7.24 c0 -4.84 4.68 -8.24 9.72 -8.24 c3.04 0 6.88 1.32 6.44 2.68 l-0.48 1.48 c-1.16 3.76 -2.2 -1.52 -7.68 -1.52 c-2.92 0 -4.44 1.52 -4.44 3.68 c0 1.76 1.04 2.8 3.76 4.44 l4.4 2.68 c4.16 2.56 5.84 4.36 5.84 7.2 c0 4.96 -4.88 8.64 -10.24 8.64 z"></path></g>
			</g>
		</svg>
	